# xmcd
#
# Track frame offsets:
# 150
# 17038
# 23053
# 28493
# 47698
# 61788
# 65333
# 93460
# 98253
# 102998
# 111390
# 126355
# 136325
# 149028
# 186763
# 201998
# 221295
# 240330
# 254553
#
# Disc length: 4482 seconds
#
#
# Revision: 2
# Processed by: cddbd v1.5.2PL0 Copyright (c) Steve Scherf et al.
# Submitted via: FreeRIP 2.93 
#
DISCID=14118013
DTITLE=Geinoh Yamashirogumi - ''Hirakareta Gassho'' Junen no Tenkai (LIVE)
DYEAR=1979
DGENRE=World
TTITLE0=The sun sank
TTITLE1=Petrunko Dance
TTITLE2=Oh, rada
TTITLE3=Come on, let's go, daughter
TTITLE4=Todra dreams
TTITLE5=Shitayan came from the capital
TTITLE6=Jana's dusk
TTITLE7=Song of the chestnut harvest
TTITLE8=Celebratory love song
TTITLE9=Song of man and woman
TTITLE10=Nihabento song
TTITLE11=Uhimira-isekanakari-nasukunbe
TTITLE12=Song of the Maran Mahon
TTITLE13=Kecak choral patterns
TTITLE14=''Long-lasting song''
TTITLE15=Song of cutting and drying
TTITLE16=Yamashiro melody: willow rain
TTITLE17=Children's songs
TTITLE18=Osore-zan
EXTD=
EXTT0=
EXTT1=
EXTT2=
EXTT3=
EXTT4=
EXTT5=
EXTT6=
EXTT7=
EXTT8=
EXTT9=
EXTT10=
EXTT11=
EXTT12=
EXTT13=
EXTT14=
EXTT15=
EXTT16=
EXTT17=
EXTT18=
PLAYORDER=
